<?xml version="1.0" encoding="UTF-8"?>
<svg width="79px" height="69px" viewBox="0 0 79 69" version="1.1" xmlns="http://www.w3.org/2000/svg" xmlns:xlink="http://www.w3.org/1999/xlink">
    <!-- Generator: sketchtool 52.6 (67491) - http://www.bohemiancoding.com/sketch -->
    <title>1494F82D-0D6F-4B58-8912-34671D31BF64</title>
    <desc>Created with sketchtool.</desc>
    <g id="All-Pages" stroke="none" stroke-width="1" fill="none" fill-rule="evenodd" opacity="0.2">
        <g id="Sign-Up---Step-1" transform="translate(-1088.000000, -283.000000)" fill="#252525">
            <path d="M1157.11017,286.065763 L1097.32068,286.065763 C1096.66576,286.065763 1096.13424,285.534237 1096.13424,284.879322 C1096.13424,284.224407 1096.66576,283.692881 1097.32068,283.692881 L1157.11017,283.692881 C1157.76508,283.692881 1158.29661,284.224407 1158.29661,284.879322 C1158.29661,285.534237 1157.76508,286.065763 1157.11017,286.065763 Z M1106.83356,293.689831 L1093.9322,293.689831 C1091.96983,293.689831 1090.37288,295.28678 1090.37288,297.249153 L1090.37288,345.31661 C1090.37288,347.278983 1091.96983,348.875932 1093.9322,348.875932 L1160.50102,348.875932 C1162.46339,348.875932 1164.06034,347.278983 1164.06034,345.31661 L1164.06034,297.249153 C1164.06034,295.28678 1162.46339,293.689831 1160.50102,293.689831 L1147.59966,293.689831 L1106.83356,293.689831 Z M1160.50102,351.246441 L1093.9322,351.246441 C1090.66,351.246441 1088,348.584068 1088,345.314237 L1088,297.249153 C1088,293.979322 1090.66,291.316949 1093.9322,291.316949 L1160.50102,291.316949 C1163.77322,291.316949 1166.43322,293.979322 1166.43322,297.249153 L1166.43322,345.31661 C1166.43322,348.586441 1163.77322,351.246441 1160.50102,351.246441 Z M1128.55492,339.562373 L1100.64034,339.562373 C1099.98542,339.562373 1099.4539,339.030847 1099.4539,338.375932 L1099.4539,335.201017 C1099.4539,333.222034 1100.60949,331.392542 1102.40102,330.545424 L1108.68441,326.682373 C1106.65559,325.037966 1105.39559,322.596271 1105.29356,319.952881 L1105.0539,313.697966 C1105.0539,308.91661 1108.95966,305.065424 1113.76475,305.065424 L1115.42102,305.065424 C1120.22373,305.065424 1124.13424,308.918983 1124.13424,313.652881 L1123.8922,319.952881 C1123.79017,322.601017 1122.53017,325.045085 1120.49424,326.687119 L1126.84407,330.573898 C1128.60237,331.432881 1129.73661,333.24339 1129.73661,335.20339 L1129.73661,338.375932 C1129.74136,339.030847 1129.20983,339.562373 1128.55492,339.562373 Z M1101.82678,337.189492 L1127.36847,337.189492 L1127.36847,335.20339 C1127.36847,334.13322 1126.74203,333.148475 1125.7739,332.690508 C1125.73593,332.671525 1125.69797,332.652542 1125.66237,332.628814 L1117.6539,327.726441 C1117.2861,327.501017 1117.0678,327.095254 1117.08678,326.66339 C1117.10814,326.231525 1117.35729,325.844746 1117.74169,325.652542 C1119.98169,324.534915 1121.43153,322.316271 1121.52407,319.860339 L1121.7661,313.605424 C1121.7661,310.224068 1118.92339,307.435932 1115.42576,307.435932 L1113.76949,307.435932 C1110.27424,307.435932 1107.43153,310.224068 1107.43153,313.650508 L1107.67119,319.860339 C1107.76373,322.309153 1109.20644,324.527797 1111.44169,325.647797 C1111.8261,325.84 1112.07763,326.22678 1112.09424,326.656271 C1112.11085,327.088136 1111.89492,327.493898 1111.52949,327.719322 L1103.53288,332.626441 C1102.45322,333.146102 1101.82915,334.130847 1101.82915,335.198644 L1101.82915,337.189492 L1101.82678,337.189492 Z M1153.96136,312.962373 L1139.30407,312.962373 C1138.64915,312.962373 1138.11763,312.430847 1138.11763,311.775932 C1138.11763,311.121017 1138.64915,310.589492 1139.30407,310.589492 L1153.96136,310.589492 C1154.61627,310.589492 1155.1478,311.121017 1155.1478,311.775932 C1155.1478,312.430847 1154.61627,312.962373 1153.96136,312.962373 Z M1153.96136,323.495593 L1139.30407,323.495593 C1138.64915,323.495593 1138.11763,322.964068 1138.11763,322.309153 C1138.11763,321.654237 1138.64915,321.122712 1139.30407,321.122712 L1153.96136,321.122712 C1154.61627,321.122712 1155.1478,321.654237 1155.1478,322.309153 C1155.1478,322.964068 1154.61627,323.495593 1153.96136,323.495593 Z M1153.96136,334.035932 L1139.30407,334.035932 C1138.64915,334.035932 1138.11763,333.504407 1138.11763,332.849492 C1138.11763,332.194576 1138.64915,331.663051 1139.30407,331.663051 L1153.96136,331.663051 C1154.61627,331.663051 1155.1478,332.194576 1155.1478,332.849492 C1155.1478,333.504407 1154.61627,334.035932 1153.96136,334.035932 Z" id="Combined-Shape"></path>
        </g>
    </g>
</svg>